M48
; DRILL file {KiCad 8.0.9-8.0.9-0~ubuntu24.04.1} date 2025-06-01T20:39:48+0300
; FORMAT={-:-/ absolute / inch / decimal}
; #@! TF.CreationDate,2025-06-01T20:39:48+03:00
; #@! TF.GenerationSoftware,Kicad,Pcbnew,8.0.9-8.0.9-0~ubuntu24.04.1
; #@! TF.FileFunction,Plated,1,2,PTH
FMAT,2
INCH
; #@! TA.AperFunction,Plated,PTH,ViaDrill
T1C0.0118
; #@! TA.AperFunction,Plated,PTH,ComponentDrill
T2C0.0394
; #@! TA.AperFunction,Plated,PTH,ComponentDrill
T3C0.0512
%
G90
G05
T1
X4.5988Y-2.5894
X4.6992Y-2.5854
X4.8055Y-2.5628
X5.0122Y-2.7311
X6.0417Y-3.4634
X6.0654Y-3.2626
X6.0929Y-3.4634
X6.2701Y-3.4437
X6.3173Y-3.1996
X6.335Y-3.6091
X6.9906Y-3.861
T2
X4.3482Y-2.4604
X4.4482Y-2.4604
X4.5482Y-2.4604
X4.6482Y-2.4604
X4.7482Y-2.4604
X4.8482Y-2.4604
X4.9482Y-2.4604
X5.2354Y-2.2607
X5.2354Y-2.3607
X5.2354Y-2.4607
X5.2354Y-2.5607
X5.2354Y-2.6607
X5.2354Y-2.7607
X5.2354Y-2.8607
X5.2354Y-2.9607
X5.2354Y-3.0607
X5.2354Y-3.1607
X5.2354Y-3.2607
X5.2354Y-3.3607
X5.2354Y-3.4607
X5.2354Y-3.5607
X5.2354Y-3.6607
X5.2354Y-3.7607
X5.2354Y-3.8607
X5.2354Y-3.9607
X5.2354Y-4.0607
X5.2354Y-4.1607
X5.2354Y-4.2607
X5.2354Y-4.3607
X5.2354Y-4.4607
X5.3354Y-2.2607
X5.3354Y-2.3607
X5.3354Y-2.4607
X5.3354Y-2.5607
X5.3354Y-2.6607
X5.3354Y-2.7607
X5.3354Y-2.8607
X5.3354Y-2.9607
X5.3354Y-3.0607
X5.3354Y-3.1607
X5.3354Y-3.2607
X5.3354Y-3.3607
X5.3354Y-3.4607
X5.3354Y-3.5607
X5.3354Y-3.6607
X5.3354Y-3.7607
X5.3354Y-3.8607
X5.3354Y-3.9607
X5.3354Y-4.0607
X5.3354Y-4.1607
X5.3354Y-4.2607
X5.3354Y-4.3607
X5.3354Y-4.4607
X6.5055Y-2.2611
X6.5055Y-2.3611
X6.5055Y-2.4611
X6.5055Y-2.5611
X6.5055Y-2.6611
X6.5055Y-2.7611
X6.5055Y-2.8611
X6.5055Y-2.9611
X6.5055Y-3.0611
X6.5055Y-3.1611
X6.5055Y-3.2611
X6.5055Y-3.3611
X6.5055Y-3.4611
X6.5055Y-3.5611
X6.5055Y-3.6611
X6.5055Y-3.7611
X6.5055Y-3.8611
X6.5055Y-3.9611
X6.5055Y-4.0611
X6.5055Y-4.1611
X6.5055Y-4.2611
X6.5055Y-4.3611
X6.5055Y-4.4611
X6.6055Y-2.2611
X6.6055Y-2.3611
X6.6055Y-2.4611
X6.6055Y-2.5611
X6.6055Y-2.6611
X6.6055Y-2.7611
X6.6055Y-2.8611
X6.6055Y-2.9611
X6.6055Y-3.0611
X6.6055Y-3.1611
X6.6055Y-3.2611
X6.6055Y-3.3611
X6.6055Y-3.4611
X6.6055Y-3.5611
X6.6055Y-3.6611
X6.6055Y-3.7611
X6.6055Y-3.8611
X6.6055Y-3.9611
X6.6055Y-4.0611
X6.6055Y-4.1611
X6.6055Y-4.2611
X6.6055Y-4.3611
X6.6055Y-4.4611
X7.0252Y-3.572
X7.0252Y-3.672
X7.0252Y-3.772
X7.3252Y-3.5719
X7.3252Y-3.6719
X7.3252Y-3.7719
T3
X5.8927Y-3.7037
X6.0927Y-3.7037
X6.2927Y-3.7037
M30
