%TF.GenerationSoftware,KiCad,Pcbnew,8.0.9-8.0.9-0~ubuntu24.04.1*%
%TF.CreationDate,2025-06-01T20:39:44+03:00*%
%TF.ProjectId,EV Control System,45562043-6f6e-4747-926f-6c2053797374,rev?*%
%TF.SameCoordinates,Original*%
%TF.FileFunction,Soldermask,Top*%
%TF.FilePolarity,Negative*%
%FSLAX46Y46*%
G04 Gerber Fmt 4.6, Leading zero omitted, Abs format (unit mm)*
G04 Created by KiCad (PCBNEW 8.0.9-8.0.9-0~ubuntu24.04.1) date 2025-06-01 20:39:44*
%MOMM*%
%LPD*%
G01*
G04 APERTURE LIST*
G04 Aperture macros list*
%AMRoundRect*
0 Rectangle with rounded corners*
0 $1 Rounding radius*
0 $2 $3 $4 $5 $6 $7 $8 $9 X,Y pos of 4 corners*
0 Add a 4 corners polygon primitive as box body*
4,1,4,$2,$3,$4,$5,$6,$7,$8,$9,$2,$3,0*
0 Add four circle primitives for the rounded corners*
1,1,$1+$1,$2,$3*
1,1,$1+$1,$4,$5*
1,1,$1+$1,$6,$7*
1,1,$1+$1,$8,$9*
0 Add four rect primitives between the rounded corners*
20,1,$1+$1,$2,$3,$4,$5,0*
20,1,$1+$1,$4,$5,$6,$7,0*
20,1,$1+$1,$6,$7,$8,$9,0*
20,1,$1+$1,$8,$9,$2,$3,0*%
G04 Aperture macros list end*
%ADD10RoundRect,0.200000X0.275000X-0.200000X0.275000X0.200000X-0.275000X0.200000X-0.275000X-0.200000X0*%
%ADD11R,1.700000X1.700000*%
%ADD12O,1.700000X1.700000*%
%ADD13RoundRect,0.225000X-0.225000X-0.250000X0.225000X-0.250000X0.225000X0.250000X-0.225000X0.250000X0*%
%ADD14R,2.600000X2.600000*%
%ADD15C,2.600000*%
%ADD16RoundRect,0.150000X-0.150000X0.825000X-0.150000X-0.825000X0.150000X-0.825000X0.150000X0.825000X0*%
%ADD17RoundRect,0.200000X0.200000X0.275000X-0.200000X0.275000X-0.200000X-0.275000X0.200000X-0.275000X0*%
G04 APERTURE END LIST*
D10*
%TO.C,R2*%
X115510000Y-66670000D03*
X115510000Y-65020000D03*
%TD*%
D11*
%TO.C,J3*%
X110445000Y-62495000D03*
D12*
X112985000Y-62495000D03*
X115525000Y-62495000D03*
X118065000Y-62495000D03*
X120605000Y-62495000D03*
X123145000Y-62495000D03*
X125685000Y-62495000D03*
%TD*%
D13*
%TO.C,C2*%
X156595000Y-76945000D03*
X158145000Y-76945000D03*
%TD*%
D10*
%TO.C,R3*%
X120610000Y-66670000D03*
X120610000Y-65020000D03*
%TD*%
D13*
%TO.C,C1*%
X156595000Y-78495000D03*
X158145000Y-78495000D03*
%TD*%
D11*
%TO.C,J6*%
X186060000Y-90725000D03*
D12*
X186060000Y-93265000D03*
X186060000Y-95805000D03*
%TD*%
D14*
%TO.C,J4*%
X149675000Y-94075000D03*
D15*
X154755000Y-94075000D03*
X159835000Y-94075000D03*
%TD*%
D16*
%TO.C,U1*%
X159230000Y-80520000D03*
X157960000Y-80520000D03*
X156690000Y-80520000D03*
X155420000Y-80520000D03*
X155420000Y-85470000D03*
X156690000Y-85470000D03*
X157960000Y-85470000D03*
X159230000Y-85470000D03*
%TD*%
D17*
%TO.C,R1*%
X158170000Y-87495000D03*
X156520000Y-87495000D03*
%TD*%
D11*
%TO.C,J5*%
X178440000Y-90730000D03*
D12*
X178440000Y-93270000D03*
X178440000Y-95810000D03*
%TD*%
D13*
%TO.C,C3*%
X111435000Y-66620000D03*
X112985000Y-66620000D03*
%TD*%
%TO.C,C4*%
X111435000Y-65095000D03*
X112985000Y-65095000D03*
%TD*%
D10*
%TO.C,R4*%
X118060000Y-66670000D03*
X118060000Y-65020000D03*
%TD*%
D11*
%TO.C,J2*%
X167779661Y-57432621D03*
D12*
X165239661Y-57432621D03*
X167779661Y-59972621D03*
X165239661Y-59972621D03*
X167779661Y-62512621D03*
X165239661Y-62512621D03*
X167779661Y-65052621D03*
X165239661Y-65052621D03*
X167779661Y-67592621D03*
X165239661Y-67592621D03*
X167779661Y-70132621D03*
X165239661Y-70132621D03*
X167779661Y-72672621D03*
X165239661Y-72672621D03*
X167779661Y-75212621D03*
X165239661Y-75212621D03*
X167779661Y-77752621D03*
X165239661Y-77752621D03*
X167779661Y-80292621D03*
X165239661Y-80292621D03*
X167779661Y-82832621D03*
X165239661Y-82832621D03*
X167779661Y-85372621D03*
X165239661Y-85372621D03*
X167779661Y-87912621D03*
X165239661Y-87912621D03*
X167779661Y-90452621D03*
X165239661Y-90452621D03*
X167779661Y-92992621D03*
X165239661Y-92992621D03*
X167779661Y-95532621D03*
X165239661Y-95532621D03*
X167779661Y-98072621D03*
X165239661Y-98072621D03*
X167779661Y-100612621D03*
X165239661Y-100612621D03*
X167779661Y-103152621D03*
X165239661Y-103152621D03*
X167779661Y-105692621D03*
X165239661Y-105692621D03*
X167779661Y-108232621D03*
X165239661Y-108232621D03*
X167779661Y-110772621D03*
X165239661Y-110772621D03*
X167779661Y-113312621D03*
X165239661Y-113312621D03*
%TD*%
D11*
%TO.C,J1*%
X135519661Y-57422621D03*
D12*
X132979661Y-57422621D03*
X135519661Y-59962621D03*
X132979661Y-59962621D03*
X135519661Y-62502621D03*
X132979661Y-62502621D03*
X135519661Y-65042621D03*
X132979661Y-65042621D03*
X135519661Y-67582621D03*
X132979661Y-67582621D03*
X135519661Y-70122621D03*
X132979661Y-70122621D03*
X135519661Y-72662621D03*
X132979661Y-72662621D03*
X135519661Y-75202621D03*
X132979661Y-75202621D03*
X135519661Y-77742621D03*
X132979661Y-77742621D03*
X135519661Y-80282621D03*
X132979661Y-80282621D03*
X135519661Y-82822621D03*
X132979661Y-82822621D03*
X135519661Y-85362621D03*
X132979661Y-85362621D03*
X135519661Y-87902621D03*
X132979661Y-87902621D03*
X135519661Y-90442621D03*
X132979661Y-90442621D03*
X135519661Y-92982621D03*
X132979661Y-92982621D03*
X135519661Y-95522621D03*
X132979661Y-95522621D03*
X135519661Y-98062621D03*
X132979661Y-98062621D03*
X135519661Y-100602621D03*
X132979661Y-100602621D03*
X135519661Y-103142621D03*
X132979661Y-103142621D03*
X135519661Y-105682621D03*
X132979661Y-105682621D03*
X135519661Y-108222621D03*
X132979661Y-108222621D03*
X135519661Y-110762621D03*
X132979661Y-110762621D03*
X135519661Y-113302621D03*
X132979661Y-113302621D03*
%TD*%
M02*
