%TF.GenerationSoftware,KiCad,Pcbnew,8.0.9-8.0.9-0~ubuntu24.04.1*%
%TF.CreationDate,2025-06-01T20:39:44+03:00*%
%TF.ProjectId,EV Control System,45562043-6f6e-4747-926f-6c2053797374,rev?*%
%TF.SameCoordinates,Original*%
%TF.FileFunction,Legend,Top*%
%TF.FilePolarity,Positive*%
%FSLAX46Y46*%
G04 Gerber Fmt 4.6, Leading zero omitted, Abs format (unit mm)*
G04 Created by KiCad (PCBNEW 8.0.9-8.0.9-0~ubuntu24.04.1) date 2025-06-01 20:39:44*
%MOMM*%
%LPD*%
G01*
G04 APERTURE LIST*
%ADD10C,0.100000*%
%ADD11C,0.175000*%
%ADD12C,0.150000*%
%ADD13C,0.120000*%
G04 APERTURE END LIST*
D10*
X106060000Y-103995000D02*
X106060000Y-60995000D01*
X130060000Y-103995000D02*
X106060000Y-103995000D01*
X106060000Y-60995000D02*
X130060000Y-60995000D01*
X130060000Y-60995000D02*
X130060000Y-103995000D01*
X176626390Y-92823408D02*
X176126390Y-92990074D01*
X176126390Y-92990074D02*
X176626390Y-93156741D01*
X176126390Y-93323407D02*
X176626390Y-93323407D01*
X176626390Y-93323407D02*
X176626390Y-93442455D01*
X176626390Y-93442455D02*
X176602580Y-93513883D01*
X176602580Y-93513883D02*
X176554961Y-93561502D01*
X176554961Y-93561502D02*
X176507342Y-93585312D01*
X176507342Y-93585312D02*
X176412104Y-93609121D01*
X176412104Y-93609121D02*
X176340676Y-93609121D01*
X176340676Y-93609121D02*
X176245438Y-93585312D01*
X176245438Y-93585312D02*
X176197819Y-93561502D01*
X176197819Y-93561502D02*
X176150200Y-93513883D01*
X176150200Y-93513883D02*
X176126390Y-93442455D01*
X176126390Y-93442455D02*
X176126390Y-93323407D01*
X176126390Y-93823407D02*
X176626390Y-93823407D01*
X176626390Y-93823407D02*
X176626390Y-93942455D01*
X176626390Y-93942455D02*
X176602580Y-94013883D01*
X176602580Y-94013883D02*
X176554961Y-94061502D01*
X176554961Y-94061502D02*
X176507342Y-94085312D01*
X176507342Y-94085312D02*
X176412104Y-94109121D01*
X176412104Y-94109121D02*
X176340676Y-94109121D01*
X176340676Y-94109121D02*
X176245438Y-94085312D01*
X176245438Y-94085312D02*
X176197819Y-94061502D01*
X176197819Y-94061502D02*
X176150200Y-94013883D01*
X176150200Y-94013883D02*
X176126390Y-93942455D01*
X176126390Y-93942455D02*
X176126390Y-93823407D01*
X188269800Y-96348972D02*
X188293609Y-96277544D01*
X188293609Y-96277544D02*
X188293609Y-96158496D01*
X188293609Y-96158496D02*
X188269800Y-96110877D01*
X188269800Y-96110877D02*
X188245990Y-96087068D01*
X188245990Y-96087068D02*
X188198371Y-96063258D01*
X188198371Y-96063258D02*
X188150752Y-96063258D01*
X188150752Y-96063258D02*
X188103133Y-96087068D01*
X188103133Y-96087068D02*
X188079323Y-96110877D01*
X188079323Y-96110877D02*
X188055514Y-96158496D01*
X188055514Y-96158496D02*
X188031704Y-96253734D01*
X188031704Y-96253734D02*
X188007895Y-96301353D01*
X188007895Y-96301353D02*
X187984085Y-96325163D01*
X187984085Y-96325163D02*
X187936466Y-96348972D01*
X187936466Y-96348972D02*
X187888847Y-96348972D01*
X187888847Y-96348972D02*
X187841228Y-96325163D01*
X187841228Y-96325163D02*
X187817419Y-96301353D01*
X187817419Y-96301353D02*
X187793609Y-96253734D01*
X187793609Y-96253734D02*
X187793609Y-96134687D01*
X187793609Y-96134687D02*
X187817419Y-96063258D01*
X188245990Y-95563259D02*
X188269800Y-95587068D01*
X188269800Y-95587068D02*
X188293609Y-95658497D01*
X188293609Y-95658497D02*
X188293609Y-95706116D01*
X188293609Y-95706116D02*
X188269800Y-95777544D01*
X188269800Y-95777544D02*
X188222180Y-95825163D01*
X188222180Y-95825163D02*
X188174561Y-95848973D01*
X188174561Y-95848973D02*
X188079323Y-95872782D01*
X188079323Y-95872782D02*
X188007895Y-95872782D01*
X188007895Y-95872782D02*
X187912657Y-95848973D01*
X187912657Y-95848973D02*
X187865038Y-95825163D01*
X187865038Y-95825163D02*
X187817419Y-95777544D01*
X187817419Y-95777544D02*
X187793609Y-95706116D01*
X187793609Y-95706116D02*
X187793609Y-95658497D01*
X187793609Y-95658497D02*
X187817419Y-95587068D01*
X187817419Y-95587068D02*
X187841228Y-95563259D01*
X188293609Y-95348973D02*
X187793609Y-95348973D01*
X188293609Y-95063259D02*
X188007895Y-95277544D01*
X187793609Y-95063259D02*
X188079323Y-95348973D01*
D11*
X148621797Y-88545233D02*
X148621797Y-87845233D01*
X148621797Y-87845233D02*
X148788464Y-87845233D01*
X148788464Y-87845233D02*
X148888464Y-87878566D01*
X148888464Y-87878566D02*
X148955131Y-87945233D01*
X148955131Y-87945233D02*
X148988464Y-88011900D01*
X148988464Y-88011900D02*
X149021797Y-88145233D01*
X149021797Y-88145233D02*
X149021797Y-88245233D01*
X149021797Y-88245233D02*
X148988464Y-88378566D01*
X148988464Y-88378566D02*
X148955131Y-88445233D01*
X148955131Y-88445233D02*
X148888464Y-88511900D01*
X148888464Y-88511900D02*
X148788464Y-88545233D01*
X148788464Y-88545233D02*
X148621797Y-88545233D01*
X149688464Y-87878566D02*
X149621797Y-87845233D01*
X149621797Y-87845233D02*
X149521797Y-87845233D01*
X149521797Y-87845233D02*
X149421797Y-87878566D01*
X149421797Y-87878566D02*
X149355131Y-87945233D01*
X149355131Y-87945233D02*
X149321797Y-88011900D01*
X149321797Y-88011900D02*
X149288464Y-88145233D01*
X149288464Y-88145233D02*
X149288464Y-88245233D01*
X149288464Y-88245233D02*
X149321797Y-88378566D01*
X149321797Y-88378566D02*
X149355131Y-88445233D01*
X149355131Y-88445233D02*
X149421797Y-88511900D01*
X149421797Y-88511900D02*
X149521797Y-88545233D01*
X149521797Y-88545233D02*
X149588464Y-88545233D01*
X149588464Y-88545233D02*
X149688464Y-88511900D01*
X149688464Y-88511900D02*
X149721797Y-88478566D01*
X149721797Y-88478566D02*
X149721797Y-88245233D01*
X149721797Y-88245233D02*
X149588464Y-88245233D01*
X150021797Y-88545233D02*
X150021797Y-87845233D01*
X150021797Y-87845233D02*
X150421797Y-88545233D01*
X150421797Y-88545233D02*
X150421797Y-87845233D01*
X150755130Y-88545233D02*
X150755130Y-87845233D01*
X150755130Y-87845233D02*
X150921797Y-87845233D01*
X150921797Y-87845233D02*
X151021797Y-87878566D01*
X151021797Y-87878566D02*
X151088464Y-87945233D01*
X151088464Y-87945233D02*
X151121797Y-88011900D01*
X151121797Y-88011900D02*
X151155130Y-88145233D01*
X151155130Y-88145233D02*
X151155130Y-88245233D01*
X151155130Y-88245233D02*
X151121797Y-88378566D01*
X151121797Y-88378566D02*
X151088464Y-88445233D01*
X151088464Y-88445233D02*
X151021797Y-88511900D01*
X151021797Y-88511900D02*
X150921797Y-88545233D01*
X150921797Y-88545233D02*
X150755130Y-88545233D01*
X154521795Y-88478566D02*
X154488462Y-88511900D01*
X154488462Y-88511900D02*
X154388462Y-88545233D01*
X154388462Y-88545233D02*
X154321795Y-88545233D01*
X154321795Y-88545233D02*
X154221795Y-88511900D01*
X154221795Y-88511900D02*
X154155129Y-88445233D01*
X154155129Y-88445233D02*
X154121795Y-88378566D01*
X154121795Y-88378566D02*
X154088462Y-88245233D01*
X154088462Y-88245233D02*
X154088462Y-88145233D01*
X154088462Y-88145233D02*
X154121795Y-88011900D01*
X154121795Y-88011900D02*
X154155129Y-87945233D01*
X154155129Y-87945233D02*
X154221795Y-87878566D01*
X154221795Y-87878566D02*
X154321795Y-87845233D01*
X154321795Y-87845233D02*
X154388462Y-87845233D01*
X154388462Y-87845233D02*
X154488462Y-87878566D01*
X154488462Y-87878566D02*
X154521795Y-87911900D01*
X154788462Y-88345233D02*
X155121795Y-88345233D01*
X154721795Y-88545233D02*
X154955129Y-87845233D01*
X154955129Y-87845233D02*
X155188462Y-88545233D01*
X155421795Y-88545233D02*
X155421795Y-87845233D01*
X155421795Y-87845233D02*
X155821795Y-88545233D01*
X155821795Y-88545233D02*
X155821795Y-87845233D01*
X156488462Y-88545233D02*
X156155128Y-88545233D01*
X156155128Y-88545233D02*
X156155128Y-87845233D01*
X159255127Y-88478566D02*
X159221794Y-88511900D01*
X159221794Y-88511900D02*
X159121794Y-88545233D01*
X159121794Y-88545233D02*
X159055127Y-88545233D01*
X159055127Y-88545233D02*
X158955127Y-88511900D01*
X158955127Y-88511900D02*
X158888461Y-88445233D01*
X158888461Y-88445233D02*
X158855127Y-88378566D01*
X158855127Y-88378566D02*
X158821794Y-88245233D01*
X158821794Y-88245233D02*
X158821794Y-88145233D01*
X158821794Y-88145233D02*
X158855127Y-88011900D01*
X158855127Y-88011900D02*
X158888461Y-87945233D01*
X158888461Y-87945233D02*
X158955127Y-87878566D01*
X158955127Y-87878566D02*
X159055127Y-87845233D01*
X159055127Y-87845233D02*
X159121794Y-87845233D01*
X159121794Y-87845233D02*
X159221794Y-87878566D01*
X159221794Y-87878566D02*
X159255127Y-87911900D01*
X159521794Y-88345233D02*
X159855127Y-88345233D01*
X159455127Y-88545233D02*
X159688461Y-87845233D01*
X159688461Y-87845233D02*
X159921794Y-88545233D01*
X160155127Y-88545233D02*
X160155127Y-87845233D01*
X160155127Y-87845233D02*
X160555127Y-88545233D01*
X160555127Y-88545233D02*
X160555127Y-87845233D01*
X160888460Y-88545233D02*
X160888460Y-87845233D01*
X160888460Y-88178566D02*
X161288460Y-88178566D01*
X161288460Y-88545233D02*
X161288460Y-87845233D01*
D10*
X188293609Y-91187068D02*
X188293609Y-91425163D01*
X188293609Y-91425163D02*
X187793609Y-91425163D01*
X187769800Y-90663258D02*
X188412657Y-91091829D01*
X188293609Y-90210877D02*
X188055514Y-90377543D01*
X188293609Y-90496591D02*
X187793609Y-90496591D01*
X187793609Y-90496591D02*
X187793609Y-90306115D01*
X187793609Y-90306115D02*
X187817419Y-90258496D01*
X187817419Y-90258496D02*
X187841228Y-90234686D01*
X187841228Y-90234686D02*
X187888847Y-90210877D01*
X187888847Y-90210877D02*
X187960276Y-90210877D01*
X187960276Y-90210877D02*
X188007895Y-90234686D01*
X188007895Y-90234686D02*
X188031704Y-90258496D01*
X188031704Y-90258496D02*
X188055514Y-90306115D01*
X188055514Y-90306115D02*
X188055514Y-90496591D01*
X176602580Y-90466741D02*
X176626390Y-90419122D01*
X176626390Y-90419122D02*
X176626390Y-90347693D01*
X176626390Y-90347693D02*
X176602580Y-90276265D01*
X176602580Y-90276265D02*
X176554961Y-90228646D01*
X176554961Y-90228646D02*
X176507342Y-90204836D01*
X176507342Y-90204836D02*
X176412104Y-90181027D01*
X176412104Y-90181027D02*
X176340676Y-90181027D01*
X176340676Y-90181027D02*
X176245438Y-90204836D01*
X176245438Y-90204836D02*
X176197819Y-90228646D01*
X176197819Y-90228646D02*
X176150200Y-90276265D01*
X176150200Y-90276265D02*
X176126390Y-90347693D01*
X176126390Y-90347693D02*
X176126390Y-90395312D01*
X176126390Y-90395312D02*
X176150200Y-90466741D01*
X176150200Y-90466741D02*
X176174009Y-90490550D01*
X176174009Y-90490550D02*
X176340676Y-90490550D01*
X176340676Y-90490550D02*
X176340676Y-90395312D01*
X176126390Y-90704836D02*
X176626390Y-90704836D01*
X176626390Y-90704836D02*
X176126390Y-90990550D01*
X176126390Y-90990550D02*
X176626390Y-90990550D01*
X176126390Y-91228646D02*
X176626390Y-91228646D01*
X176626390Y-91228646D02*
X176626390Y-91347694D01*
X176626390Y-91347694D02*
X176602580Y-91419122D01*
X176602580Y-91419122D02*
X176554961Y-91466741D01*
X176554961Y-91466741D02*
X176507342Y-91490551D01*
X176507342Y-91490551D02*
X176412104Y-91514360D01*
X176412104Y-91514360D02*
X176340676Y-91514360D01*
X176340676Y-91514360D02*
X176245438Y-91490551D01*
X176245438Y-91490551D02*
X176197819Y-91466741D01*
X176197819Y-91466741D02*
X176150200Y-91419122D01*
X176150200Y-91419122D02*
X176126390Y-91347694D01*
X176126390Y-91347694D02*
X176126390Y-91228646D01*
X176140200Y-95791027D02*
X176116390Y-95862455D01*
X176116390Y-95862455D02*
X176116390Y-95981503D01*
X176116390Y-95981503D02*
X176140200Y-96029122D01*
X176140200Y-96029122D02*
X176164009Y-96052931D01*
X176164009Y-96052931D02*
X176211628Y-96076741D01*
X176211628Y-96076741D02*
X176259247Y-96076741D01*
X176259247Y-96076741D02*
X176306866Y-96052931D01*
X176306866Y-96052931D02*
X176330676Y-96029122D01*
X176330676Y-96029122D02*
X176354485Y-95981503D01*
X176354485Y-95981503D02*
X176378295Y-95886265D01*
X176378295Y-95886265D02*
X176402104Y-95838646D01*
X176402104Y-95838646D02*
X176425914Y-95814836D01*
X176425914Y-95814836D02*
X176473533Y-95791027D01*
X176473533Y-95791027D02*
X176521152Y-95791027D01*
X176521152Y-95791027D02*
X176568771Y-95814836D01*
X176568771Y-95814836D02*
X176592580Y-95838646D01*
X176592580Y-95838646D02*
X176616390Y-95886265D01*
X176616390Y-95886265D02*
X176616390Y-96005312D01*
X176616390Y-96005312D02*
X176592580Y-96076741D01*
X176116390Y-96291026D02*
X176616390Y-96291026D01*
X176616390Y-96291026D02*
X176616390Y-96410074D01*
X176616390Y-96410074D02*
X176592580Y-96481502D01*
X176592580Y-96481502D02*
X176544961Y-96529121D01*
X176544961Y-96529121D02*
X176497342Y-96552931D01*
X176497342Y-96552931D02*
X176402104Y-96576740D01*
X176402104Y-96576740D02*
X176330676Y-96576740D01*
X176330676Y-96576740D02*
X176235438Y-96552931D01*
X176235438Y-96552931D02*
X176187819Y-96529121D01*
X176187819Y-96529121D02*
X176140200Y-96481502D01*
X176140200Y-96481502D02*
X176116390Y-96410074D01*
X176116390Y-96410074D02*
X176116390Y-96291026D01*
X110006741Y-60127419D02*
X109959122Y-60103609D01*
X109959122Y-60103609D02*
X109887693Y-60103609D01*
X109887693Y-60103609D02*
X109816265Y-60127419D01*
X109816265Y-60127419D02*
X109768646Y-60175038D01*
X109768646Y-60175038D02*
X109744836Y-60222657D01*
X109744836Y-60222657D02*
X109721027Y-60317895D01*
X109721027Y-60317895D02*
X109721027Y-60389323D01*
X109721027Y-60389323D02*
X109744836Y-60484561D01*
X109744836Y-60484561D02*
X109768646Y-60532180D01*
X109768646Y-60532180D02*
X109816265Y-60579800D01*
X109816265Y-60579800D02*
X109887693Y-60603609D01*
X109887693Y-60603609D02*
X109935312Y-60603609D01*
X109935312Y-60603609D02*
X110006741Y-60579800D01*
X110006741Y-60579800D02*
X110030550Y-60555990D01*
X110030550Y-60555990D02*
X110030550Y-60389323D01*
X110030550Y-60389323D02*
X109935312Y-60389323D01*
X110244836Y-60603609D02*
X110244836Y-60103609D01*
X110244836Y-60103609D02*
X110530550Y-60603609D01*
X110530550Y-60603609D02*
X110530550Y-60103609D01*
X110768646Y-60603609D02*
X110768646Y-60103609D01*
X110768646Y-60103609D02*
X110887694Y-60103609D01*
X110887694Y-60103609D02*
X110959122Y-60127419D01*
X110959122Y-60127419D02*
X111006741Y-60175038D01*
X111006741Y-60175038D02*
X111030551Y-60222657D01*
X111030551Y-60222657D02*
X111054360Y-60317895D01*
X111054360Y-60317895D02*
X111054360Y-60389323D01*
X111054360Y-60389323D02*
X111030551Y-60484561D01*
X111030551Y-60484561D02*
X111006741Y-60532180D01*
X111006741Y-60532180D02*
X110959122Y-60579800D01*
X110959122Y-60579800D02*
X110887694Y-60603609D01*
X110887694Y-60603609D02*
X110768646Y-60603609D01*
X111959122Y-60103609D02*
X112125788Y-60603609D01*
X112125788Y-60603609D02*
X112292455Y-60103609D01*
X112744835Y-60555990D02*
X112721026Y-60579800D01*
X112721026Y-60579800D02*
X112649597Y-60603609D01*
X112649597Y-60603609D02*
X112601978Y-60603609D01*
X112601978Y-60603609D02*
X112530550Y-60579800D01*
X112530550Y-60579800D02*
X112482931Y-60532180D01*
X112482931Y-60532180D02*
X112459121Y-60484561D01*
X112459121Y-60484561D02*
X112435312Y-60389323D01*
X112435312Y-60389323D02*
X112435312Y-60317895D01*
X112435312Y-60317895D02*
X112459121Y-60222657D01*
X112459121Y-60222657D02*
X112482931Y-60175038D01*
X112482931Y-60175038D02*
X112530550Y-60127419D01*
X112530550Y-60127419D02*
X112601978Y-60103609D01*
X112601978Y-60103609D02*
X112649597Y-60103609D01*
X112649597Y-60103609D02*
X112721026Y-60127419D01*
X112721026Y-60127419D02*
X112744835Y-60151228D01*
X113244835Y-60555990D02*
X113221026Y-60579800D01*
X113221026Y-60579800D02*
X113149597Y-60603609D01*
X113149597Y-60603609D02*
X113101978Y-60603609D01*
X113101978Y-60603609D02*
X113030550Y-60579800D01*
X113030550Y-60579800D02*
X112982931Y-60532180D01*
X112982931Y-60532180D02*
X112959121Y-60484561D01*
X112959121Y-60484561D02*
X112935312Y-60389323D01*
X112935312Y-60389323D02*
X112935312Y-60317895D01*
X112935312Y-60317895D02*
X112959121Y-60222657D01*
X112959121Y-60222657D02*
X112982931Y-60175038D01*
X112982931Y-60175038D02*
X113030550Y-60127419D01*
X113030550Y-60127419D02*
X113101978Y-60103609D01*
X113101978Y-60103609D02*
X113149597Y-60103609D01*
X113149597Y-60103609D02*
X113221026Y-60127419D01*
X113221026Y-60127419D02*
X113244835Y-60151228D01*
X114959120Y-60460752D02*
X115197215Y-60460752D01*
X114911501Y-60603609D02*
X115078167Y-60103609D01*
X115078167Y-60103609D02*
X115244834Y-60603609D01*
X115411500Y-60103609D02*
X115411500Y-60508371D01*
X115411500Y-60508371D02*
X115435310Y-60555990D01*
X115435310Y-60555990D02*
X115459119Y-60579800D01*
X115459119Y-60579800D02*
X115506738Y-60603609D01*
X115506738Y-60603609D02*
X115601976Y-60603609D01*
X115601976Y-60603609D02*
X115649595Y-60579800D01*
X115649595Y-60579800D02*
X115673405Y-60555990D01*
X115673405Y-60555990D02*
X115697214Y-60508371D01*
X115697214Y-60508371D02*
X115697214Y-60103609D01*
X115887691Y-60103609D02*
X116221024Y-60603609D01*
X116221024Y-60103609D02*
X115887691Y-60603609D01*
X117482928Y-60103609D02*
X117768642Y-60103609D01*
X117625785Y-60603609D02*
X117625785Y-60103609D01*
X117887689Y-60103609D02*
X118221022Y-60603609D01*
X118221022Y-60103609D02*
X117887689Y-60603609D01*
X118411498Y-60603609D02*
X118411498Y-60103609D01*
X118411498Y-60103609D02*
X118530546Y-60103609D01*
X118530546Y-60103609D02*
X118601974Y-60127419D01*
X118601974Y-60127419D02*
X118649593Y-60175038D01*
X118649593Y-60175038D02*
X118673403Y-60222657D01*
X118673403Y-60222657D02*
X118697212Y-60317895D01*
X118697212Y-60317895D02*
X118697212Y-60389323D01*
X118697212Y-60389323D02*
X118673403Y-60484561D01*
X118673403Y-60484561D02*
X118649593Y-60532180D01*
X118649593Y-60532180D02*
X118601974Y-60579800D01*
X118601974Y-60579800D02*
X118530546Y-60603609D01*
X118530546Y-60603609D02*
X118411498Y-60603609D01*
X120340068Y-60603609D02*
X120173402Y-60365514D01*
X120054354Y-60603609D02*
X120054354Y-60103609D01*
X120054354Y-60103609D02*
X120244830Y-60103609D01*
X120244830Y-60103609D02*
X120292449Y-60127419D01*
X120292449Y-60127419D02*
X120316259Y-60151228D01*
X120316259Y-60151228D02*
X120340068Y-60198847D01*
X120340068Y-60198847D02*
X120340068Y-60270276D01*
X120340068Y-60270276D02*
X120316259Y-60317895D01*
X120316259Y-60317895D02*
X120292449Y-60341704D01*
X120292449Y-60341704D02*
X120244830Y-60365514D01*
X120244830Y-60365514D02*
X120054354Y-60365514D01*
X120506735Y-60103609D02*
X120840068Y-60603609D01*
X120840068Y-60103609D02*
X120506735Y-60603609D01*
X121030544Y-60603609D02*
X121030544Y-60103609D01*
X121030544Y-60103609D02*
X121149592Y-60103609D01*
X121149592Y-60103609D02*
X121221020Y-60127419D01*
X121221020Y-60127419D02*
X121268639Y-60175038D01*
X121268639Y-60175038D02*
X121292449Y-60222657D01*
X121292449Y-60222657D02*
X121316258Y-60317895D01*
X121316258Y-60317895D02*
X121316258Y-60389323D01*
X121316258Y-60389323D02*
X121292449Y-60484561D01*
X121292449Y-60484561D02*
X121268639Y-60532180D01*
X121268639Y-60532180D02*
X121221020Y-60579800D01*
X121221020Y-60579800D02*
X121149592Y-60603609D01*
X121149592Y-60603609D02*
X121030544Y-60603609D01*
X122673400Y-60603609D02*
X122673400Y-60103609D01*
X122673400Y-60103609D02*
X122840067Y-60460752D01*
X122840067Y-60460752D02*
X123006733Y-60103609D01*
X123006733Y-60103609D02*
X123006733Y-60603609D01*
X123506734Y-60603609D02*
X123221020Y-60603609D01*
X123363877Y-60603609D02*
X123363877Y-60103609D01*
X123363877Y-60103609D02*
X123316258Y-60175038D01*
X123316258Y-60175038D02*
X123268639Y-60222657D01*
X123268639Y-60222657D02*
X123221020Y-60246466D01*
X125244827Y-60603609D02*
X125244827Y-60103609D01*
X125244827Y-60103609D02*
X125411494Y-60460752D01*
X125411494Y-60460752D02*
X125578160Y-60103609D01*
X125578160Y-60103609D02*
X125578160Y-60603609D01*
X125911494Y-60103609D02*
X125959113Y-60103609D01*
X125959113Y-60103609D02*
X126006732Y-60127419D01*
X126006732Y-60127419D02*
X126030542Y-60151228D01*
X126030542Y-60151228D02*
X126054351Y-60198847D01*
X126054351Y-60198847D02*
X126078161Y-60294085D01*
X126078161Y-60294085D02*
X126078161Y-60413133D01*
X126078161Y-60413133D02*
X126054351Y-60508371D01*
X126054351Y-60508371D02*
X126030542Y-60555990D01*
X126030542Y-60555990D02*
X126006732Y-60579800D01*
X126006732Y-60579800D02*
X125959113Y-60603609D01*
X125959113Y-60603609D02*
X125911494Y-60603609D01*
X125911494Y-60603609D02*
X125863875Y-60579800D01*
X125863875Y-60579800D02*
X125840066Y-60555990D01*
X125840066Y-60555990D02*
X125816256Y-60508371D01*
X125816256Y-60508371D02*
X125792447Y-60413133D01*
X125792447Y-60413133D02*
X125792447Y-60294085D01*
X125792447Y-60294085D02*
X125816256Y-60198847D01*
X125816256Y-60198847D02*
X125840066Y-60151228D01*
X125840066Y-60151228D02*
X125863875Y-60127419D01*
X125863875Y-60127419D02*
X125911494Y-60103609D01*
X187793609Y-93672782D02*
X188293609Y-93553734D01*
X188293609Y-93553734D02*
X187936466Y-93458496D01*
X187936466Y-93458496D02*
X188293609Y-93363258D01*
X188293609Y-93363258D02*
X187793609Y-93244211D01*
X188269800Y-93077543D02*
X188293609Y-93006115D01*
X188293609Y-93006115D02*
X188293609Y-92887067D01*
X188293609Y-92887067D02*
X188269800Y-92839448D01*
X188269800Y-92839448D02*
X188245990Y-92815639D01*
X188245990Y-92815639D02*
X188198371Y-92791829D01*
X188198371Y-92791829D02*
X188150752Y-92791829D01*
X188150752Y-92791829D02*
X188103133Y-92815639D01*
X188103133Y-92815639D02*
X188079323Y-92839448D01*
X188079323Y-92839448D02*
X188055514Y-92887067D01*
X188055514Y-92887067D02*
X188031704Y-92982305D01*
X188031704Y-92982305D02*
X188007895Y-93029924D01*
X188007895Y-93029924D02*
X187984085Y-93053734D01*
X187984085Y-93053734D02*
X187936466Y-93077543D01*
X187936466Y-93077543D02*
X187888847Y-93077543D01*
X187888847Y-93077543D02*
X187841228Y-93053734D01*
X187841228Y-93053734D02*
X187817419Y-93029924D01*
X187817419Y-93029924D02*
X187793609Y-92982305D01*
X187793609Y-92982305D02*
X187793609Y-92863258D01*
X187793609Y-92863258D02*
X187817419Y-92791829D01*
D12*
X116064819Y-68486666D02*
X115588628Y-68819999D01*
X116064819Y-69058094D02*
X115064819Y-69058094D01*
X115064819Y-69058094D02*
X115064819Y-68677142D01*
X115064819Y-68677142D02*
X115112438Y-68581904D01*
X115112438Y-68581904D02*
X115160057Y-68534285D01*
X115160057Y-68534285D02*
X115255295Y-68486666D01*
X115255295Y-68486666D02*
X115398152Y-68486666D01*
X115398152Y-68486666D02*
X115493390Y-68534285D01*
X115493390Y-68534285D02*
X115541009Y-68581904D01*
X115541009Y-68581904D02*
X115588628Y-68677142D01*
X115588628Y-68677142D02*
X115588628Y-69058094D01*
X115160057Y-68105713D02*
X115112438Y-68058094D01*
X115112438Y-68058094D02*
X115064819Y-67962856D01*
X115064819Y-67962856D02*
X115064819Y-67724761D01*
X115064819Y-67724761D02*
X115112438Y-67629523D01*
X115112438Y-67629523D02*
X115160057Y-67581904D01*
X115160057Y-67581904D02*
X115255295Y-67534285D01*
X115255295Y-67534285D02*
X115350533Y-67534285D01*
X115350533Y-67534285D02*
X115493390Y-67581904D01*
X115493390Y-67581904D02*
X116064819Y-68153332D01*
X116064819Y-68153332D02*
X116064819Y-67534285D01*
X107076666Y-61874819D02*
X107076666Y-62589104D01*
X107076666Y-62589104D02*
X107029047Y-62731961D01*
X107029047Y-62731961D02*
X106933809Y-62827200D01*
X106933809Y-62827200D02*
X106790952Y-62874819D01*
X106790952Y-62874819D02*
X106695714Y-62874819D01*
X107457619Y-61874819D02*
X108076666Y-61874819D01*
X108076666Y-61874819D02*
X107743333Y-62255771D01*
X107743333Y-62255771D02*
X107886190Y-62255771D01*
X107886190Y-62255771D02*
X107981428Y-62303390D01*
X107981428Y-62303390D02*
X108029047Y-62351009D01*
X108029047Y-62351009D02*
X108076666Y-62446247D01*
X108076666Y-62446247D02*
X108076666Y-62684342D01*
X108076666Y-62684342D02*
X108029047Y-62779580D01*
X108029047Y-62779580D02*
X107981428Y-62827200D01*
X107981428Y-62827200D02*
X107886190Y-62874819D01*
X107886190Y-62874819D02*
X107600476Y-62874819D01*
X107600476Y-62874819D02*
X107505238Y-62827200D01*
X107505238Y-62827200D02*
X107457619Y-62779580D01*
X159678333Y-76954580D02*
X159630714Y-77002200D01*
X159630714Y-77002200D02*
X159487857Y-77049819D01*
X159487857Y-77049819D02*
X159392619Y-77049819D01*
X159392619Y-77049819D02*
X159249762Y-77002200D01*
X159249762Y-77002200D02*
X159154524Y-76906961D01*
X159154524Y-76906961D02*
X159106905Y-76811723D01*
X159106905Y-76811723D02*
X159059286Y-76621247D01*
X159059286Y-76621247D02*
X159059286Y-76478390D01*
X159059286Y-76478390D02*
X159106905Y-76287914D01*
X159106905Y-76287914D02*
X159154524Y-76192676D01*
X159154524Y-76192676D02*
X159249762Y-76097438D01*
X159249762Y-76097438D02*
X159392619Y-76049819D01*
X159392619Y-76049819D02*
X159487857Y-76049819D01*
X159487857Y-76049819D02*
X159630714Y-76097438D01*
X159630714Y-76097438D02*
X159678333Y-76145057D01*
X160059286Y-76145057D02*
X160106905Y-76097438D01*
X160106905Y-76097438D02*
X160202143Y-76049819D01*
X160202143Y-76049819D02*
X160440238Y-76049819D01*
X160440238Y-76049819D02*
X160535476Y-76097438D01*
X160535476Y-76097438D02*
X160583095Y-76145057D01*
X160583095Y-76145057D02*
X160630714Y-76240295D01*
X160630714Y-76240295D02*
X160630714Y-76335533D01*
X160630714Y-76335533D02*
X160583095Y-76478390D01*
X160583095Y-76478390D02*
X160011667Y-77049819D01*
X160011667Y-77049819D02*
X160630714Y-77049819D01*
X121789819Y-68411666D02*
X121313628Y-68744999D01*
X121789819Y-68983094D02*
X120789819Y-68983094D01*
X120789819Y-68983094D02*
X120789819Y-68602142D01*
X120789819Y-68602142D02*
X120837438Y-68506904D01*
X120837438Y-68506904D02*
X120885057Y-68459285D01*
X120885057Y-68459285D02*
X120980295Y-68411666D01*
X120980295Y-68411666D02*
X121123152Y-68411666D01*
X121123152Y-68411666D02*
X121218390Y-68459285D01*
X121218390Y-68459285D02*
X121266009Y-68506904D01*
X121266009Y-68506904D02*
X121313628Y-68602142D01*
X121313628Y-68602142D02*
X121313628Y-68983094D01*
X120789819Y-68078332D02*
X120789819Y-67459285D01*
X120789819Y-67459285D02*
X121170771Y-67792618D01*
X121170771Y-67792618D02*
X121170771Y-67649761D01*
X121170771Y-67649761D02*
X121218390Y-67554523D01*
X121218390Y-67554523D02*
X121266009Y-67506904D01*
X121266009Y-67506904D02*
X121361247Y-67459285D01*
X121361247Y-67459285D02*
X121599342Y-67459285D01*
X121599342Y-67459285D02*
X121694580Y-67506904D01*
X121694580Y-67506904D02*
X121742200Y-67554523D01*
X121742200Y-67554523D02*
X121789819Y-67649761D01*
X121789819Y-67649761D02*
X121789819Y-67935475D01*
X121789819Y-67935475D02*
X121742200Y-68030713D01*
X121742200Y-68030713D02*
X121694580Y-68078332D01*
X159678333Y-78254580D02*
X159630714Y-78302200D01*
X159630714Y-78302200D02*
X159487857Y-78349819D01*
X159487857Y-78349819D02*
X159392619Y-78349819D01*
X159392619Y-78349819D02*
X159249762Y-78302200D01*
X159249762Y-78302200D02*
X159154524Y-78206961D01*
X159154524Y-78206961D02*
X159106905Y-78111723D01*
X159106905Y-78111723D02*
X159059286Y-77921247D01*
X159059286Y-77921247D02*
X159059286Y-77778390D01*
X159059286Y-77778390D02*
X159106905Y-77587914D01*
X159106905Y-77587914D02*
X159154524Y-77492676D01*
X159154524Y-77492676D02*
X159249762Y-77397438D01*
X159249762Y-77397438D02*
X159392619Y-77349819D01*
X159392619Y-77349819D02*
X159487857Y-77349819D01*
X159487857Y-77349819D02*
X159630714Y-77397438D01*
X159630714Y-77397438D02*
X159678333Y-77445057D01*
X160630714Y-78349819D02*
X160059286Y-78349819D01*
X160345000Y-78349819D02*
X160345000Y-77349819D01*
X160345000Y-77349819D02*
X160249762Y-77492676D01*
X160249762Y-77492676D02*
X160154524Y-77587914D01*
X160154524Y-77587914D02*
X160059286Y-77635533D01*
X185726666Y-87784819D02*
X185726666Y-88499104D01*
X185726666Y-88499104D02*
X185679047Y-88641961D01*
X185679047Y-88641961D02*
X185583809Y-88737200D01*
X185583809Y-88737200D02*
X185440952Y-88784819D01*
X185440952Y-88784819D02*
X185345714Y-88784819D01*
X186631428Y-87784819D02*
X186440952Y-87784819D01*
X186440952Y-87784819D02*
X186345714Y-87832438D01*
X186345714Y-87832438D02*
X186298095Y-87880057D01*
X186298095Y-87880057D02*
X186202857Y-88022914D01*
X186202857Y-88022914D02*
X186155238Y-88213390D01*
X186155238Y-88213390D02*
X186155238Y-88594342D01*
X186155238Y-88594342D02*
X186202857Y-88689580D01*
X186202857Y-88689580D02*
X186250476Y-88737200D01*
X186250476Y-88737200D02*
X186345714Y-88784819D01*
X186345714Y-88784819D02*
X186536190Y-88784819D01*
X186536190Y-88784819D02*
X186631428Y-88737200D01*
X186631428Y-88737200D02*
X186679047Y-88689580D01*
X186679047Y-88689580D02*
X186726666Y-88594342D01*
X186726666Y-88594342D02*
X186726666Y-88356247D01*
X186726666Y-88356247D02*
X186679047Y-88261009D01*
X186679047Y-88261009D02*
X186631428Y-88213390D01*
X186631428Y-88213390D02*
X186536190Y-88165771D01*
X186536190Y-88165771D02*
X186345714Y-88165771D01*
X186345714Y-88165771D02*
X186250476Y-88213390D01*
X186250476Y-88213390D02*
X186202857Y-88261009D01*
X186202857Y-88261009D02*
X186155238Y-88356247D01*
X145396666Y-93554819D02*
X145396666Y-94269104D01*
X145396666Y-94269104D02*
X145349047Y-94411961D01*
X145349047Y-94411961D02*
X145253809Y-94507200D01*
X145253809Y-94507200D02*
X145110952Y-94554819D01*
X145110952Y-94554819D02*
X145015714Y-94554819D01*
X146301428Y-93888152D02*
X146301428Y-94554819D01*
X146063333Y-93507200D02*
X145825238Y-94221485D01*
X145825238Y-94221485D02*
X146444285Y-94221485D01*
X160179819Y-83756904D02*
X160989342Y-83756904D01*
X160989342Y-83756904D02*
X161084580Y-83709285D01*
X161084580Y-83709285D02*
X161132200Y-83661666D01*
X161132200Y-83661666D02*
X161179819Y-83566428D01*
X161179819Y-83566428D02*
X161179819Y-83375952D01*
X161179819Y-83375952D02*
X161132200Y-83280714D01*
X161132200Y-83280714D02*
X161084580Y-83233095D01*
X161084580Y-83233095D02*
X160989342Y-83185476D01*
X160989342Y-83185476D02*
X160179819Y-83185476D01*
X161179819Y-82185476D02*
X161179819Y-82756904D01*
X161179819Y-82471190D02*
X160179819Y-82471190D01*
X160179819Y-82471190D02*
X160322676Y-82566428D01*
X160322676Y-82566428D02*
X160417914Y-82661666D01*
X160417914Y-82661666D02*
X160465533Y-82756904D01*
X160743333Y-86664819D02*
X160410000Y-86188628D01*
X160171905Y-86664819D02*
X160171905Y-85664819D01*
X160171905Y-85664819D02*
X160552857Y-85664819D01*
X160552857Y-85664819D02*
X160648095Y-85712438D01*
X160648095Y-85712438D02*
X160695714Y-85760057D01*
X160695714Y-85760057D02*
X160743333Y-85855295D01*
X160743333Y-85855295D02*
X160743333Y-85998152D01*
X160743333Y-85998152D02*
X160695714Y-86093390D01*
X160695714Y-86093390D02*
X160648095Y-86141009D01*
X160648095Y-86141009D02*
X160552857Y-86188628D01*
X160552857Y-86188628D02*
X160171905Y-86188628D01*
X161695714Y-86664819D02*
X161124286Y-86664819D01*
X161410000Y-86664819D02*
X161410000Y-85664819D01*
X161410000Y-85664819D02*
X161314762Y-85807676D01*
X161314762Y-85807676D02*
X161219524Y-85902914D01*
X161219524Y-85902914D02*
X161124286Y-85950533D01*
X178106666Y-87684819D02*
X178106666Y-88399104D01*
X178106666Y-88399104D02*
X178059047Y-88541961D01*
X178059047Y-88541961D02*
X177963809Y-88637200D01*
X177963809Y-88637200D02*
X177820952Y-88684819D01*
X177820952Y-88684819D02*
X177725714Y-88684819D01*
X179059047Y-87684819D02*
X178582857Y-87684819D01*
X178582857Y-87684819D02*
X178535238Y-88161009D01*
X178535238Y-88161009D02*
X178582857Y-88113390D01*
X178582857Y-88113390D02*
X178678095Y-88065771D01*
X178678095Y-88065771D02*
X178916190Y-88065771D01*
X178916190Y-88065771D02*
X179011428Y-88113390D01*
X179011428Y-88113390D02*
X179059047Y-88161009D01*
X179059047Y-88161009D02*
X179106666Y-88256247D01*
X179106666Y-88256247D02*
X179106666Y-88494342D01*
X179106666Y-88494342D02*
X179059047Y-88589580D01*
X179059047Y-88589580D02*
X179011428Y-88637200D01*
X179011428Y-88637200D02*
X178916190Y-88684819D01*
X178916190Y-88684819D02*
X178678095Y-88684819D01*
X178678095Y-88684819D02*
X178582857Y-88637200D01*
X178582857Y-88637200D02*
X178535238Y-88589580D01*
X109643333Y-66979580D02*
X109595714Y-67027200D01*
X109595714Y-67027200D02*
X109452857Y-67074819D01*
X109452857Y-67074819D02*
X109357619Y-67074819D01*
X109357619Y-67074819D02*
X109214762Y-67027200D01*
X109214762Y-67027200D02*
X109119524Y-66931961D01*
X109119524Y-66931961D02*
X109071905Y-66836723D01*
X109071905Y-66836723D02*
X109024286Y-66646247D01*
X109024286Y-66646247D02*
X109024286Y-66503390D01*
X109024286Y-66503390D02*
X109071905Y-66312914D01*
X109071905Y-66312914D02*
X109119524Y-66217676D01*
X109119524Y-66217676D02*
X109214762Y-66122438D01*
X109214762Y-66122438D02*
X109357619Y-66074819D01*
X109357619Y-66074819D02*
X109452857Y-66074819D01*
X109452857Y-66074819D02*
X109595714Y-66122438D01*
X109595714Y-66122438D02*
X109643333Y-66170057D01*
X109976667Y-66074819D02*
X110595714Y-66074819D01*
X110595714Y-66074819D02*
X110262381Y-66455771D01*
X110262381Y-66455771D02*
X110405238Y-66455771D01*
X110405238Y-66455771D02*
X110500476Y-66503390D01*
X110500476Y-66503390D02*
X110548095Y-66551009D01*
X110548095Y-66551009D02*
X110595714Y-66646247D01*
X110595714Y-66646247D02*
X110595714Y-66884342D01*
X110595714Y-66884342D02*
X110548095Y-66979580D01*
X110548095Y-66979580D02*
X110500476Y-67027200D01*
X110500476Y-67027200D02*
X110405238Y-67074819D01*
X110405238Y-67074819D02*
X110119524Y-67074819D01*
X110119524Y-67074819D02*
X110024286Y-67027200D01*
X110024286Y-67027200D02*
X109976667Y-66979580D01*
X109643333Y-65654580D02*
X109595714Y-65702200D01*
X109595714Y-65702200D02*
X109452857Y-65749819D01*
X109452857Y-65749819D02*
X109357619Y-65749819D01*
X109357619Y-65749819D02*
X109214762Y-65702200D01*
X109214762Y-65702200D02*
X109119524Y-65606961D01*
X109119524Y-65606961D02*
X109071905Y-65511723D01*
X109071905Y-65511723D02*
X109024286Y-65321247D01*
X109024286Y-65321247D02*
X109024286Y-65178390D01*
X109024286Y-65178390D02*
X109071905Y-64987914D01*
X109071905Y-64987914D02*
X109119524Y-64892676D01*
X109119524Y-64892676D02*
X109214762Y-64797438D01*
X109214762Y-64797438D02*
X109357619Y-64749819D01*
X109357619Y-64749819D02*
X109452857Y-64749819D01*
X109452857Y-64749819D02*
X109595714Y-64797438D01*
X109595714Y-64797438D02*
X109643333Y-64845057D01*
X110500476Y-65083152D02*
X110500476Y-65749819D01*
X110262381Y-64702200D02*
X110024286Y-65416485D01*
X110024286Y-65416485D02*
X110643333Y-65416485D01*
X118414819Y-68411666D02*
X117938628Y-68744999D01*
X118414819Y-68983094D02*
X117414819Y-68983094D01*
X117414819Y-68983094D02*
X117414819Y-68602142D01*
X117414819Y-68602142D02*
X117462438Y-68506904D01*
X117462438Y-68506904D02*
X117510057Y-68459285D01*
X117510057Y-68459285D02*
X117605295Y-68411666D01*
X117605295Y-68411666D02*
X117748152Y-68411666D01*
X117748152Y-68411666D02*
X117843390Y-68459285D01*
X117843390Y-68459285D02*
X117891009Y-68506904D01*
X117891009Y-68506904D02*
X117938628Y-68602142D01*
X117938628Y-68602142D02*
X117938628Y-68983094D01*
X117748152Y-67554523D02*
X118414819Y-67554523D01*
X117367200Y-67792618D02*
X118081485Y-68030713D01*
X118081485Y-68030713D02*
X118081485Y-67411666D01*
D13*
%TO.C,R2*%
X114987500Y-66082258D02*
X114987500Y-65607742D01*
X116032500Y-66082258D02*
X116032500Y-65607742D01*
%TO.C,J3*%
X109115000Y-61165000D02*
X110445000Y-61165000D01*
X109115000Y-62495000D02*
X109115000Y-61165000D01*
X111715000Y-61165000D02*
X127015000Y-61165000D01*
X111715000Y-63825000D02*
X111715000Y-61165000D01*
X111715000Y-63825000D02*
X127015000Y-63825000D01*
X127015000Y-63825000D02*
X127015000Y-61165000D01*
%TO.C,C2*%
X157229420Y-76435000D02*
X157510580Y-76435000D01*
X157229420Y-77455000D02*
X157510580Y-77455000D01*
%TO.C,R3*%
X120087500Y-66082258D02*
X120087500Y-65607742D01*
X121132500Y-66082258D02*
X121132500Y-65607742D01*
%TO.C,C1*%
X157229420Y-77985000D02*
X157510580Y-77985000D01*
X157229420Y-79005000D02*
X157510580Y-79005000D01*
%TO.C,J6*%
X184730000Y-91995000D02*
X184730000Y-97135000D01*
X184730000Y-91995000D02*
X187390000Y-91995000D01*
X184730000Y-97135000D02*
X187390000Y-97135000D01*
X186060000Y-89395000D02*
X187390000Y-89395000D01*
X187390000Y-89395000D02*
X187390000Y-90725000D01*
X187390000Y-91995000D02*
X187390000Y-97135000D01*
%TO.C,J4*%
X146835000Y-98235000D02*
X146835000Y-98975000D01*
X146835000Y-98975000D02*
X147335000Y-98975000D01*
X147075000Y-88814000D02*
X147075000Y-98735000D01*
X147075000Y-88814000D02*
X162435000Y-88814000D01*
X147075000Y-91774000D02*
X162435000Y-91774000D01*
X147075000Y-96675000D02*
X162435000Y-96675000D01*
X147075000Y-98175000D02*
X162435000Y-98175000D01*
X147075000Y-98735000D02*
X162435000Y-98735000D01*
X153528000Y-95098000D02*
X153481000Y-95144000D01*
X153721000Y-95314000D02*
X153686000Y-95349000D01*
X155825000Y-92800000D02*
X155790000Y-92836000D01*
X156030000Y-93006000D02*
X155983000Y-93052000D01*
X158608000Y-95098000D02*
X158561000Y-95144000D01*
X158801000Y-95314000D02*
X158766000Y-95349000D01*
X160905000Y-92800000D02*
X160870000Y-92836000D01*
X161110000Y-93006000D02*
X161063000Y-93052000D01*
X162435000Y-88814000D02*
X162435000Y-98735000D01*
X148139573Y-94758042D02*
G75*
G02*
X148140000Y-93391000I1535420J683041D01*
G01*
X148991958Y-92539573D02*
G75*
G02*
X150359000Y-92540000I683041J-1535420D01*
G01*
X149703805Y-95755253D02*
G75*
G02*
X148991000Y-95610000I-28806J1680254D01*
G01*
X150358318Y-95609756D02*
G75*
G02*
X149675000Y-95755000I-683318J1534756D01*
G01*
X151210427Y-93391958D02*
G75*
G02*
X151210000Y-94759000I-1535427J-683042D01*
G01*
X156435000Y-94075000D02*
G75*
G02*
X153075000Y-94075000I-1680000J0D01*
G01*
X153075000Y-94075000D02*
G75*
G02*
X156435000Y-94075000I1680000J0D01*
G01*
X161515000Y-94075000D02*
G75*
G02*
X158155000Y-94075000I-1680000J0D01*
G01*
X158155000Y-94075000D02*
G75*
G02*
X161515000Y-94075000I1680000J0D01*
G01*
%TO.C,U1*%
X154765000Y-82995000D02*
X154765000Y-81045000D01*
X154765000Y-82995000D02*
X154765000Y-84945000D01*
X159885000Y-82995000D02*
X159885000Y-81045000D01*
X159885000Y-82995000D02*
X159885000Y-84945000D01*
X160120000Y-80535000D02*
X159790000Y-80295000D01*
X160120000Y-80055000D01*
X160120000Y-80535000D01*
G36*
X160120000Y-80535000D02*
G01*
X159790000Y-80295000D01*
X160120000Y-80055000D01*
X160120000Y-80535000D01*
G37*
%TO.C,R1*%
X157582258Y-86972500D02*
X157107742Y-86972500D01*
X157582258Y-88017500D02*
X157107742Y-88017500D01*
%TO.C,J5*%
X177110000Y-92000000D02*
X177110000Y-97140000D01*
X177110000Y-92000000D02*
X179770000Y-92000000D01*
X177110000Y-97140000D02*
X179770000Y-97140000D01*
X178440000Y-89400000D02*
X179770000Y-89400000D01*
X179770000Y-89400000D02*
X179770000Y-90730000D01*
X179770000Y-92000000D02*
X179770000Y-97140000D01*
%TO.C,C3*%
X112069420Y-66110000D02*
X112350580Y-66110000D01*
X112069420Y-67130000D02*
X112350580Y-67130000D01*
%TO.C,C4*%
X112069420Y-64585000D02*
X112350580Y-64585000D01*
X112069420Y-65605000D02*
X112350580Y-65605000D01*
%TO.C,R4*%
X117537500Y-66082258D02*
X117537500Y-65607742D01*
X118582500Y-66082258D02*
X118582500Y-65607742D01*
%TD*%
M02*
