%TF.GenerationSoftware,KiCad,Pcbnew,8.0.9-8.0.9-0~ubuntu24.04.1*%
%TF.CreationDate,2025-06-01T20:39:44+03:00*%
%TF.ProjectId,EV Control System,45562043-6f6e-4747-926f-6c2053797374,rev?*%
%TF.SameCoordinates,Original*%
%TF.FileFunction,Legend,Bot*%
%TF.FilePolarity,Positive*%
%FSLAX46Y46*%
G04 Gerber Fmt 4.6, Leading zero omitted, Abs format (unit mm)*
G04 Created by KiCad (PCBNEW 8.0.9-8.0.9-0~ubuntu24.04.1) date 2025-06-01 20:39:44*
%MOMM*%
%LPD*%
G01*
G04 APERTURE LIST*
%ADD10C,0.150000*%
%ADD11C,0.120000*%
G04 APERTURE END LIST*
D10*
X170643333Y-57574819D02*
X170643333Y-58289104D01*
X170643333Y-58289104D02*
X170690952Y-58431961D01*
X170690952Y-58431961D02*
X170786190Y-58527200D01*
X170786190Y-58527200D02*
X170929047Y-58574819D01*
X170929047Y-58574819D02*
X171024285Y-58574819D01*
X170214761Y-57670057D02*
X170167142Y-57622438D01*
X170167142Y-57622438D02*
X170071904Y-57574819D01*
X170071904Y-57574819D02*
X169833809Y-57574819D01*
X169833809Y-57574819D02*
X169738571Y-57622438D01*
X169738571Y-57622438D02*
X169690952Y-57670057D01*
X169690952Y-57670057D02*
X169643333Y-57765295D01*
X169643333Y-57765295D02*
X169643333Y-57860533D01*
X169643333Y-57860533D02*
X169690952Y-58003390D01*
X169690952Y-58003390D02*
X170262380Y-58574819D01*
X170262380Y-58574819D02*
X169643333Y-58574819D01*
X130593333Y-57324819D02*
X130593333Y-58039104D01*
X130593333Y-58039104D02*
X130640952Y-58181961D01*
X130640952Y-58181961D02*
X130736190Y-58277200D01*
X130736190Y-58277200D02*
X130879047Y-58324819D01*
X130879047Y-58324819D02*
X130974285Y-58324819D01*
X129593333Y-58324819D02*
X130164761Y-58324819D01*
X129879047Y-58324819D02*
X129879047Y-57324819D01*
X129879047Y-57324819D02*
X129974285Y-57467676D01*
X129974285Y-57467676D02*
X130069523Y-57562914D01*
X130069523Y-57562914D02*
X130164761Y-57610533D01*
D11*
%TO.C,J2*%
X163909661Y-56102621D02*
X166509661Y-56102621D01*
X163909661Y-114642621D02*
X163909661Y-56102621D01*
X163909661Y-114642621D02*
X169109661Y-114642621D01*
X166509661Y-56102621D02*
X166509661Y-58702621D01*
X166509661Y-58702621D02*
X169109661Y-58702621D01*
X167779661Y-56102621D02*
X169109661Y-56102621D01*
X169109661Y-56102621D02*
X169109661Y-57432621D01*
X169109661Y-114642621D02*
X169109661Y-58702621D01*
%TO.C,J1*%
X131649661Y-56092621D02*
X134249661Y-56092621D01*
X131649661Y-114632621D02*
X131649661Y-56092621D01*
X131649661Y-114632621D02*
X136849661Y-114632621D01*
X134249661Y-56092621D02*
X134249661Y-58692621D01*
X134249661Y-58692621D02*
X136849661Y-58692621D01*
X135519661Y-56092621D02*
X136849661Y-56092621D01*
X136849661Y-56092621D02*
X136849661Y-57422621D01*
X136849661Y-114632621D02*
X136849661Y-58692621D01*
%TD*%
M02*
