%TF.GenerationSoftware,KiCad,Pcbnew,8.0.9-8.0.9-0~ubuntu24.04.1*%
%TF.CreationDate,2025-06-01T20:42:16+03:00*%
%TF.ProjectId,Telemetry,54656c65-6d65-4747-9279-2e6b69636164,rev?*%
%TF.SameCoordinates,Original*%
%TF.FileFunction,Profile,NP*%
%FSLAX46Y46*%
G04 Gerber Fmt 4.6, Leading zero omitted, Abs format (unit mm)*
G04 Created by KiCad (PCBNEW 8.0.9-8.0.9-0~ubuntu24.04.1) date 2025-06-01 20:42:16*
%MOMM*%
%LPD*%
G01*
G04 APERTURE LIST*
%TA.AperFunction,Profile*%
%ADD10C,0.050000*%
%TD*%
G04 APERTURE END LIST*
D10*
X132777500Y-121507500D02*
X132777500Y-119107500D01*
X132777500Y-129057500D02*
G75*
G02*
X131927500Y-129907500I-850000J0D01*
G01*
X132777500Y-129057500D02*
X132777500Y-124507500D01*
X132777500Y-101707500D02*
X132777500Y-94107500D01*
X132777500Y-65707500D02*
X132777500Y-58307500D01*
X107077500Y-110707500D02*
X107077500Y-114807500D01*
X126177500Y-129907500D02*
X131177500Y-129907500D01*
X132777500Y-119107500D02*
X132777500Y-111357500D01*
X107077500Y-97157500D02*
X107077500Y-100457500D01*
X107077500Y-100457500D02*
X107077500Y-105707500D01*
X108162500Y-53950000D02*
X112862500Y-53950000D01*
X107877500Y-129907500D02*
G75*
G02*
X107077500Y-129107500I0J800000D01*
G01*
X132777500Y-124507500D02*
X132777500Y-121507500D01*
X132777500Y-87957500D02*
X132777500Y-80607500D01*
X107077500Y-124857500D02*
X107077500Y-126407500D01*
X107065731Y-54942500D02*
X107073231Y-58307500D01*
X121977500Y-129907500D02*
X126177500Y-129907500D01*
X131770000Y-53950000D02*
G75*
G02*
X132770000Y-54950000I0J-1000000D01*
G01*
X107077500Y-110207500D02*
X107077500Y-110707500D01*
X107077500Y-93407500D02*
X107077500Y-97157500D01*
X132777500Y-109757500D02*
X132777500Y-101707500D01*
X132777500Y-111357500D02*
X132777500Y-109757500D01*
X107077500Y-90307500D02*
X107077500Y-93407500D01*
X114827500Y-129907500D02*
X117727500Y-129907500D01*
X107077500Y-126407500D02*
X107077500Y-129057500D01*
X112870000Y-53950000D02*
X131770000Y-53950000D01*
X132770000Y-54950000D02*
X132777500Y-58307500D01*
X107073231Y-90307500D02*
X107073231Y-58307500D01*
X132777500Y-94107500D02*
X132777500Y-87957500D01*
X131177500Y-129907500D02*
X131927500Y-129907500D01*
X107065731Y-54942500D02*
G75*
G02*
X108162503Y-53949972I1004269J-7500D01*
G01*
X107077500Y-120157500D02*
X107077500Y-124857500D01*
X107077500Y-129057500D02*
X107077500Y-129107500D01*
X110527500Y-129907500D02*
X114827500Y-129907500D01*
X117727500Y-129907500D02*
X121977500Y-129907500D01*
X107077500Y-105707500D02*
X107077500Y-110207500D01*
X107077500Y-114807500D02*
X107077500Y-119107500D01*
X132777500Y-80607500D02*
X132777500Y-65707500D01*
X107077500Y-119107500D02*
X107077500Y-120157500D01*
X107877500Y-129907500D02*
X110527500Y-129907500D01*
M02*
