%TF.GenerationSoftware,KiCad,Pcbnew,8.0.9-8.0.9-0~ubuntu24.04.1*%
%TF.CreationDate,2025-06-01T20:42:16+03:00*%
%TF.ProjectId,Telemetry,54656c65-6d65-4747-9279-2e6b69636164,rev?*%
%TF.SameCoordinates,Original*%
%TF.FileFunction,Copper,L1,Top*%
%TF.FilePolarity,Positive*%
%FSLAX46Y46*%
G04 Gerber Fmt 4.6, Leading zero omitted, Abs format (unit mm)*
G04 Created by KiCad (PCBNEW 8.0.9-8.0.9-0~ubuntu24.04.1) date 2025-06-01 20:42:16*
%MOMM*%
%LPD*%
G01*
G04 APERTURE LIST*
G04 Aperture macros list*
%AMRoundRect*
0 Rectangle with rounded corners*
0 $1 Rounding radius*
0 $2 $3 $4 $5 $6 $7 $8 $9 X,Y pos of 4 corners*
0 Add a 4 corners polygon primitive as box body*
4,1,4,$2,$3,$4,$5,$6,$7,$8,$9,$2,$3,0*
0 Add four circle primitives for the rounded corners*
1,1,$1+$1,$2,$3*
1,1,$1+$1,$4,$5*
1,1,$1+$1,$6,$7*
1,1,$1+$1,$8,$9*
0 Add four rect primitives between the rounded corners*
20,1,$1+$1,$2,$3,$4,$5,0*
20,1,$1+$1,$4,$5,$6,$7,0*
20,1,$1+$1,$6,$7,$8,$9,0*
20,1,$1+$1,$8,$9,$2,$3,0*%
G04 Aperture macros list end*
%TA.AperFunction,SMDPad,CuDef*%
%ADD10RoundRect,0.225000X-0.225000X-0.250000X0.225000X-0.250000X0.225000X0.250000X-0.225000X0.250000X0*%
%TD*%
%TA.AperFunction,SMDPad,CuDef*%
%ADD11RoundRect,0.032500X0.452500X0.097500X-0.452500X0.097500X-0.452500X-0.097500X0.452500X-0.097500X0*%
%TD*%
%TA.AperFunction,SMDPad,CuDef*%
%ADD12RoundRect,0.032500X0.097500X0.452500X-0.097500X0.452500X-0.097500X-0.452500X0.097500X-0.452500X0*%
%TD*%
%TA.AperFunction,SMDPad,CuDef*%
%ADD13R,3.150000X3.150000*%
%TD*%
%TA.AperFunction,SMDPad,CuDef*%
%ADD14RoundRect,0.200000X-0.200000X-0.275000X0.200000X-0.275000X0.200000X0.275000X-0.200000X0.275000X0*%
%TD*%
%TA.AperFunction,SMDPad,CuDef*%
%ADD15R,0.508000X2.260600*%
%TD*%
%TA.AperFunction,SMDPad,CuDef*%
%ADD16R,2.057400X3.987800*%
%TD*%
%TA.AperFunction,SMDPad,CuDef*%
%ADD17RoundRect,0.200000X-0.275000X0.200000X-0.275000X-0.200000X0.275000X-0.200000X0.275000X0.200000X0*%
%TD*%
%TA.AperFunction,SMDPad,CuDef*%
%ADD18RoundRect,0.200000X0.200000X0.275000X-0.200000X0.275000X-0.200000X-0.275000X0.200000X-0.275000X0*%
%TD*%
%TA.AperFunction,SMDPad,CuDef*%
%ADD19RoundRect,0.200000X0.275000X-0.200000X0.275000X0.200000X-0.275000X0.200000X-0.275000X-0.200000X0*%
%TD*%
%TA.AperFunction,SMDPad,CuDef*%
%ADD20RoundRect,0.225000X-0.250000X0.225000X-0.250000X-0.225000X0.250000X-0.225000X0.250000X0.225000X0*%
%TD*%
%TA.AperFunction,ComponentPad*%
%ADD21R,1.700000X1.700000*%
%TD*%
%TA.AperFunction,ComponentPad*%
%ADD22O,1.700000X1.700000*%
%TD*%
%TA.AperFunction,SMDPad,CuDef*%
%ADD23RoundRect,0.218750X0.256250X-0.218750X0.256250X0.218750X-0.256250X0.218750X-0.256250X-0.218750X0*%
%TD*%
%TA.AperFunction,SMDPad,CuDef*%
%ADD24RoundRect,0.073750X-0.531250X-0.221250X0.531250X-0.221250X0.531250X0.221250X-0.531250X0.221250X0*%
%TD*%
%TA.AperFunction,ViaPad*%
%ADD25C,0.600000*%
%TD*%
%TA.AperFunction,Conductor*%
%ADD26C,0.300000*%
%TD*%
%TA.AperFunction,Conductor*%
%ADD27C,0.200000*%
%TD*%
G04 APERTURE END LIST*
D10*
%TO.P,C5,1*%
%TO.N,GND*%
X113310000Y-91770000D03*
%TO.P,C5,2*%
%TO.N,/VBUS*%
X114860000Y-91770000D03*
%TD*%
%TO.P,C4,1*%
%TO.N,GND*%
X113310000Y-90210000D03*
%TO.P,C4,2*%
%TO.N,/VBUS*%
X114860000Y-90210000D03*
%TD*%
D11*
%TO.P,U2,1,DCD*%
%TO.N,unconnected-(U2-DCD-Pad1)*%
X121900000Y-79750000D03*
%TO.P,U2,2,RI*%
%TO.N,unconnected-(U2-RI-Pad2)*%
X121900000Y-79250000D03*
%TO.P,U2,3,GND*%
%TO.N,GND*%
X121900000Y-78750000D03*
%TO.P,U2,4,D+*%
%TO.N,/CP_D+*%
X121900000Y-78250000D03*
%TO.P,U2,5,D-*%
%TO.N,/CP_D-*%
X121900000Y-77750000D03*
%TO.P,U2,6,VDD*%
%TO.N,/RED_LED*%
X121900000Y-77250000D03*
%TO.P,U2,7,REGIN*%
%TO.N,/VBUS*%
X121900000Y-76750000D03*
D12*
%TO.P,U2,8,VBUS*%
X121030000Y-75880000D03*
%TO.P,U2,9,~{RST}*%
%TO.N,Net-(U2-~{RST})*%
X120530000Y-75880000D03*
%TO.P,U2,10,NC*%
%TO.N,unconnected-(U2-NC-Pad10)_5*%
X120030000Y-75880000D03*
%TO.P,U2,11,~{SUSPEND}*%
%TO.N,unconnected-(U2-~{SUSPEND}-Pad11)*%
X119530000Y-75880000D03*
%TO.P,U2,12,SUSPEND*%
%TO.N,unconnected-(U2-SUSPEND-Pad12)*%
X119030000Y-75880000D03*
%TO.P,U2,13,NC*%
%TO.N,unconnected-(U2-NC-Pad10)_3*%
X118530000Y-75880000D03*
%TO.P,U2,14,NC*%
%TO.N,unconnected-(U2-NC-Pad10)_9*%
X118030000Y-75880000D03*
D11*
%TO.P,U2,15,NC*%
%TO.N,unconnected-(U2-NC-Pad10)_10*%
X117160000Y-76750000D03*
%TO.P,U2,16,NC*%
%TO.N,unconnected-(U2-NC-Pad10)*%
X117160000Y-77250000D03*
%TO.P,U2,17,NC*%
%TO.N,unconnected-(U2-NC-Pad10)_4*%
X117160000Y-77750000D03*
%TO.P,U2,18,NC*%
%TO.N,unconnected-(U2-NC-Pad10)_8*%
X117160000Y-78250000D03*
%TO.P,U2,19,NC*%
%TO.N,unconnected-(U2-NC-Pad10)_1*%
X117160000Y-78750000D03*
%TO.P,U2,20,NC*%
%TO.N,unconnected-(U2-NC-Pad10)_6*%
X117160000Y-79250000D03*
%TO.P,U2,21,NC*%
%TO.N,unconnected-(U2-NC-Pad10)_2*%
X117160000Y-79750000D03*
D12*
%TO.P,U2,22,NC*%
%TO.N,unconnected-(U2-NC-Pad10)_7*%
X118030000Y-80620000D03*
%TO.P,U2,23,CTS*%
%TO.N,unconnected-(U2-CTS-Pad23)*%
X118530000Y-80620000D03*
%TO.P,U2,24,RTS*%
%TO.N,unconnected-(U2-RTS-Pad24)*%
X119030000Y-80620000D03*
%TO.P,U2,25,RXD*%
%TO.N,/TXD*%
X119530000Y-80620000D03*
%TO.P,U2,26,TXD*%
%TO.N,/RXD*%
X120030000Y-80620000D03*
%TO.P,U2,27,DSR*%
%TO.N,unconnected-(U2-DSR-Pad27)*%
X120530000Y-80620000D03*
%TO.P,U2,28,DTR*%
%TO.N,unconnected-(U2-DTR-Pad28)*%
X121030000Y-80620000D03*
D13*
%TO.P,U2,29,GND*%
%TO.N,GND*%
X119530000Y-78250000D03*
%TD*%
D10*
%TO.P,C1,1*%
%TO.N,/VBUS*%
X122545000Y-66750000D03*
%TO.P,C1,2*%
%TO.N,GND*%
X124095000Y-66750000D03*
%TD*%
D14*
%TO.P,R5,1*%
%TO.N,/VBUS*%
X118495000Y-83750000D03*
%TO.P,R5,2*%
%TO.N,/RXD*%
X120145000Y-83750000D03*
%TD*%
D15*
%TO.P,J1,1,VBUS*%
%TO.N,/VBUS*%
X121470000Y-62320800D03*
%TO.P,J1,2,D-*%
%TO.N,Net-(J1-D-)*%
X120670000Y-62320800D03*
%TO.P,J1,3,D+*%
%TO.N,Net-(J1-D+)*%
X119870000Y-62320800D03*
%TO.P,J1,4,ID*%
%TO.N,unconnected-(J1-ID-Pad4)*%
X119070000Y-62320800D03*
%TO.P,J1,5,GND*%
%TO.N,GND*%
X118270000Y-62320800D03*
D16*
%TO.P,J1,6*%
%TO.N,N/C*%
X124795000Y-62295800D03*
%TO.P,J1,7*%
X114945000Y-62295800D03*
%TO.P,J1,8*%
X124795000Y-58095800D03*
%TO.P,J1,9*%
X114945000Y-58095800D03*
%TD*%
D17*
%TO.P,R2,1*%
%TO.N,Net-(J1-D+)*%
X119470000Y-66675000D03*
%TO.P,R2,2*%
%TO.N,/USB_D+*%
X119470000Y-68325000D03*
%TD*%
D18*
%TO.P,R3,1*%
%TO.N,/VBUS*%
X122170000Y-74350000D03*
%TO.P,R3,2*%
%TO.N,Net-(U2-~{RST})*%
X120520000Y-74350000D03*
%TD*%
D19*
%TO.P,R1,1*%
%TO.N,/USB_D-*%
X121020000Y-68325000D03*
%TO.P,R1,2*%
%TO.N,Net-(J1-D-)*%
X121020000Y-66675000D03*
%TD*%
D20*
%TO.P,C3,1*%
%TO.N,/RED_LED*%
X127570000Y-78950000D03*
%TO.P,C3,2*%
%TO.N,GND*%
X127570000Y-80500000D03*
%TD*%
D10*
%TO.P,C2,1*%
%TO.N,/VBUS*%
X122545000Y-68300000D03*
%TO.P,C2,2*%
%TO.N,GND*%
X124095000Y-68300000D03*
%TD*%
D21*
%TO.P,J2,1,Pin_1*%
%TO.N,GND*%
X112330000Y-87560000D03*
D22*
%TO.P,J2,2,Pin_2*%
%TO.N,/VBUS*%
X114870000Y-87560000D03*
%TO.P,J2,3,Pin_3*%
%TO.N,unconnected-(J2-Pin_3-Pad3)*%
X117410000Y-87560000D03*
%TO.P,J2,4,Pin_4*%
%TO.N,/TXD*%
X119950000Y-87560000D03*
%TO.P,J2,5,Pin_5*%
%TO.N,/RXD*%
X122490000Y-87560000D03*
%TO.P,J2,6,Pin_6*%
%TO.N,GND*%
X125030000Y-87560000D03*
%TO.P,J2,7,Pin_7*%
X127570000Y-87560000D03*
%TD*%
D14*
%TO.P,R6,1*%
%TO.N,/VBUS*%
X117495000Y-82200000D03*
%TO.P,R6,2*%
%TO.N,/TXD*%
X119145000Y-82200000D03*
%TD*%
D23*
%TO.P,D1,1,K*%
%TO.N,GND*%
X125970000Y-81900000D03*
%TO.P,D1,2,A*%
%TO.N,Net-(D1-A)*%
X125970000Y-80325000D03*
%TD*%
D17*
%TO.P,R4,1*%
%TO.N,/RED_LED*%
X125970000Y-77250000D03*
%TO.P,R4,2*%
%TO.N,Net-(D1-A)*%
X125970000Y-78900000D03*
%TD*%
D24*
%TO.P,U1,1*%
%TO.N,/USB_D+*%
X119465000Y-70450000D03*
%TO.P,U1,2*%
%TO.N,GND*%
X119465000Y-71400000D03*
%TO.P,U1,3*%
%TO.N,/USB_D-*%
X119465000Y-72350000D03*
%TO.P,U1,4*%
%TO.N,/CP_D-*%
X121975000Y-72350000D03*
%TO.P,U1,5*%
%TO.N,/VBUS*%
X121975000Y-71400000D03*
%TO.P,U1,6*%
%TO.N,/CP_D+*%
X121975000Y-70450000D03*
%TD*%
D25*
%TO.N,GND*%
X114945000Y-64875000D03*
X123020000Y-78900000D03*
X118270000Y-64600000D03*
X118220000Y-71400000D03*
X113310000Y-92920000D03*
X125970000Y-83050000D03*
X124120000Y-69450000D03*
%TO.N,/RED_LED*%
X124820000Y-77000000D03*
X123020000Y-77000000D03*
%TD*%
D26*
%TO.N,GND*%
X127370000Y-80500000D02*
X125970000Y-81900000D01*
X124095000Y-66750000D02*
X124095000Y-68300000D01*
X113310000Y-90210000D02*
X113310000Y-88540000D01*
X118270000Y-62320800D02*
X118270000Y-64600000D01*
D27*
X112312500Y-86872500D02*
X112312500Y-87557500D01*
X112312500Y-87557500D02*
X112312500Y-87817500D01*
D26*
X119465000Y-71400000D02*
X118220000Y-71400000D01*
X121900000Y-78750000D02*
X120030000Y-78750000D01*
X114945000Y-64875000D02*
X114945000Y-62295800D01*
X124795000Y-58095800D02*
X114945000Y-58095800D01*
X114945000Y-58095800D02*
X114945000Y-62295800D01*
X124095000Y-69425000D02*
X124120000Y-69450000D01*
X113310000Y-92920000D02*
X113310000Y-91770000D01*
X113310000Y-90210000D02*
X113310000Y-91770000D01*
X121900000Y-78750000D02*
X122870000Y-78750000D01*
X124795000Y-62295800D02*
X124795000Y-58095800D01*
X113310000Y-88540000D02*
X112330000Y-87560000D01*
X122870000Y-78750000D02*
X123020000Y-78900000D01*
X120030000Y-78750000D02*
X119530000Y-78250000D01*
X125970000Y-81900000D02*
X125970000Y-83050000D01*
X127570000Y-80500000D02*
X127370000Y-80500000D01*
X124095000Y-68300000D02*
X124095000Y-69425000D01*
%TO.N,/VBUS*%
X119420000Y-73150000D02*
X120970000Y-73150000D01*
X120970000Y-73150000D02*
X122170000Y-74350000D01*
X114860000Y-91770000D02*
X114860000Y-90210000D01*
X122545000Y-68300000D02*
X122370000Y-68300000D01*
X116170000Y-80875000D02*
X116170000Y-76400000D01*
X121900000Y-76750000D02*
X121030000Y-75880000D01*
X122170000Y-74740000D02*
X121030000Y-75880000D01*
X116170000Y-76400000D02*
X119420000Y-73150000D01*
X122170000Y-74350000D02*
X122170000Y-74740000D01*
X121975000Y-71400000D02*
X121320000Y-71400000D01*
X117495000Y-82750000D02*
X118495000Y-83750000D01*
X122545000Y-66750000D02*
X122545000Y-66575000D01*
X117495000Y-82200000D02*
X117495000Y-82750000D01*
X117495000Y-82200000D02*
X116170000Y-80875000D01*
X122545000Y-66575000D02*
X121470000Y-65500000D01*
X121320000Y-71400000D02*
X120970000Y-71750000D01*
X120970000Y-71750000D02*
X120970000Y-73150000D01*
X114860000Y-90210000D02*
X114860000Y-87570000D01*
X118495000Y-83930000D02*
X114867500Y-87557500D01*
X114860000Y-87570000D02*
X114870000Y-87560000D01*
X118495000Y-83750000D02*
X118495000Y-83930000D01*
D27*
X114852500Y-87572500D02*
X114867500Y-87557500D01*
D26*
X121470000Y-65500000D02*
X121470000Y-62320800D01*
X122545000Y-66750000D02*
X122545000Y-68300000D01*
X122545000Y-68300000D02*
X120970000Y-69875000D01*
X120970000Y-69875000D02*
X120970000Y-71750000D01*
%TO.N,/RED_LED*%
X127570000Y-78950000D02*
X127570000Y-78850000D01*
X122770000Y-77250000D02*
X123020000Y-77000000D01*
X127570000Y-78850000D02*
X125970000Y-77250000D01*
X121900000Y-77250000D02*
X122770000Y-77250000D01*
X124820000Y-77000000D02*
X125070000Y-77250000D01*
X125070000Y-77250000D02*
X125970000Y-77250000D01*
%TO.N,Net-(D1-A)*%
X125970000Y-80325000D02*
X125970000Y-78900000D01*
%TO.N,Net-(J1-D-)*%
X120670000Y-66325000D02*
X121020000Y-66675000D01*
X120670000Y-62320800D02*
X120670000Y-66325000D01*
%TO.N,Net-(J1-D+)*%
X119870000Y-66275000D02*
X119470000Y-66675000D01*
X119870000Y-62320800D02*
X119870000Y-66275000D01*
%TO.N,/TXD*%
X119145000Y-82200000D02*
X119245000Y-82300000D01*
X119245000Y-82300000D02*
X119245000Y-86855000D01*
X119530000Y-80620000D02*
X119530000Y-81815000D01*
D27*
X119677500Y-87812500D02*
X119932500Y-87557500D01*
D26*
X119530000Y-81815000D02*
X119145000Y-82200000D01*
X119245000Y-86855000D02*
X119947500Y-87557500D01*
%TO.N,/RXD*%
X120030000Y-80620000D02*
X120030000Y-83635000D01*
X120030000Y-83635000D02*
X120145000Y-83750000D01*
X120145000Y-85215000D02*
X122487500Y-87557500D01*
D27*
X122487500Y-86917500D02*
X122487500Y-87557500D01*
X122877500Y-87962500D02*
X122472500Y-87557500D01*
D26*
X120145000Y-83750000D02*
X120145000Y-85215000D01*
%TO.N,/USB_D-*%
X120470000Y-71748818D02*
X119868818Y-72350000D01*
X120470000Y-68875000D02*
X120470000Y-71748818D01*
X119868818Y-72350000D02*
X119465000Y-72350000D01*
X121020000Y-68325000D02*
X120470000Y-68875000D01*
X121228752Y-68533752D02*
X121020000Y-68325000D01*
%TO.N,/USB_D+*%
X119465000Y-68330000D02*
X119470000Y-68325000D01*
X119465000Y-70450000D02*
X119465000Y-68330000D01*
%TO.N,/CP_D-*%
X123670000Y-74045000D02*
X121975000Y-72350000D01*
X123189239Y-77750000D02*
X123670000Y-77269239D01*
X121900000Y-77750000D02*
X123189239Y-77750000D01*
X123670000Y-77269239D02*
X123670000Y-74045000D01*
%TO.N,/CP_D+*%
X123396346Y-78250000D02*
X124170000Y-77476346D01*
X124170000Y-77476346D02*
X124170000Y-72241182D01*
X122378818Y-70450000D02*
X121975000Y-70450000D01*
X121900000Y-78250000D02*
X123396346Y-78250000D01*
X124170000Y-72241182D02*
X122378818Y-70450000D01*
%TO.N,Net-(U2-~{RST})*%
X120520000Y-75870000D02*
X120530000Y-75880000D01*
X120520000Y-74350000D02*
X120520000Y-75870000D01*
%TD*%
M02*
