%TF.GenerationSoftware,KiCad,Pcbnew,8.0.9-8.0.9-0~ubuntu24.04.1*%
%TF.CreationDate,2025-06-01T20:42:16+03:00*%
%TF.ProjectId,Telemetry,54656c65-6d65-4747-9279-2e6b69636164,rev?*%
%TF.SameCoordinates,Original*%
%TF.FileFunction,Paste,Top*%
%TF.FilePolarity,Positive*%
%FSLAX46Y46*%
G04 Gerber Fmt 4.6, Leading zero omitted, Abs format (unit mm)*
G04 Created by KiCad (PCBNEW 8.0.9-8.0.9-0~ubuntu24.04.1) date 2025-06-01 20:42:16*
%MOMM*%
%LPD*%
G01*
G04 APERTURE LIST*
G04 Aperture macros list*
%AMRoundRect*
0 Rectangle with rounded corners*
0 $1 Rounding radius*
0 $2 $3 $4 $5 $6 $7 $8 $9 X,Y pos of 4 corners*
0 Add a 4 corners polygon primitive as box body*
4,1,4,$2,$3,$4,$5,$6,$7,$8,$9,$2,$3,0*
0 Add four circle primitives for the rounded corners*
1,1,$1+$1,$2,$3*
1,1,$1+$1,$4,$5*
1,1,$1+$1,$6,$7*
1,1,$1+$1,$8,$9*
0 Add four rect primitives between the rounded corners*
20,1,$1+$1,$2,$3,$4,$5,0*
20,1,$1+$1,$4,$5,$6,$7,0*
20,1,$1+$1,$6,$7,$8,$9,0*
20,1,$1+$1,$8,$9,$2,$3,0*%
G04 Aperture macros list end*
%ADD10C,0.010000*%
%ADD11RoundRect,0.225000X-0.225000X-0.250000X0.225000X-0.250000X0.225000X0.250000X-0.225000X0.250000X0*%
%ADD12RoundRect,0.032500X0.452500X0.097500X-0.452500X0.097500X-0.452500X-0.097500X0.452500X-0.097500X0*%
%ADD13RoundRect,0.032500X0.097500X0.452500X-0.097500X0.452500X-0.097500X-0.452500X0.097500X-0.452500X0*%
%ADD14RoundRect,0.200000X-0.200000X-0.275000X0.200000X-0.275000X0.200000X0.275000X-0.200000X0.275000X0*%
%ADD15R,0.508000X2.260600*%
%ADD16R,2.057400X3.987800*%
%ADD17RoundRect,0.200000X-0.275000X0.200000X-0.275000X-0.200000X0.275000X-0.200000X0.275000X0.200000X0*%
%ADD18RoundRect,0.200000X0.200000X0.275000X-0.200000X0.275000X-0.200000X-0.275000X0.200000X-0.275000X0*%
%ADD19RoundRect,0.200000X0.275000X-0.200000X0.275000X0.200000X-0.275000X0.200000X-0.275000X-0.200000X0*%
%ADD20RoundRect,0.225000X-0.250000X0.225000X-0.250000X-0.225000X0.250000X-0.225000X0.250000X0.225000X0*%
%ADD21RoundRect,0.218750X0.256250X-0.218750X0.256250X0.218750X-0.256250X0.218750X-0.256250X-0.218750X0*%
%ADD22RoundRect,0.073750X-0.531250X-0.221250X0.531250X-0.221250X0.531250X0.221250X-0.531250X0.221250X0*%
G04 APERTURE END LIST*
D10*
%TO.C,U2*%
X120530000Y-79250000D02*
X118530000Y-79250000D01*
X118530000Y-77250000D01*
X120530000Y-77250000D01*
X120530000Y-79250000D01*
G36*
X120530000Y-79250000D02*
G01*
X118530000Y-79250000D01*
X118530000Y-77250000D01*
X120530000Y-77250000D01*
X120530000Y-79250000D01*
G37*
%TD*%
D11*
%TO.C,C5*%
X113310000Y-91770000D03*
X114860000Y-91770000D03*
%TD*%
%TO.C,C4*%
X113310000Y-90210000D03*
X114860000Y-90210000D03*
%TD*%
D12*
%TO.C,U2*%
X121900000Y-79750000D03*
X121900000Y-79250000D03*
X121900000Y-78750000D03*
X121900000Y-78250000D03*
X121900000Y-77750000D03*
X121900000Y-77250000D03*
X121900000Y-76750000D03*
D13*
X121030000Y-75880000D03*
X120530000Y-75880000D03*
X120030000Y-75880000D03*
X119530000Y-75880000D03*
X119030000Y-75880000D03*
X118530000Y-75880000D03*
X118030000Y-75880000D03*
D12*
X117160000Y-76750000D03*
X117160000Y-77250000D03*
X117160000Y-77750000D03*
X117160000Y-78250000D03*
X117160000Y-78750000D03*
X117160000Y-79250000D03*
X117160000Y-79750000D03*
D13*
X118030000Y-80620000D03*
X118530000Y-80620000D03*
X119030000Y-80620000D03*
X119530000Y-80620000D03*
X120030000Y-80620000D03*
X120530000Y-80620000D03*
X121030000Y-80620000D03*
%TD*%
D11*
%TO.C,C1*%
X122545000Y-66750000D03*
X124095000Y-66750000D03*
%TD*%
D14*
%TO.C,R5*%
X118495000Y-83750000D03*
X120145000Y-83750000D03*
%TD*%
D15*
%TO.C,J1*%
X121470000Y-62320800D03*
X120670000Y-62320800D03*
X119870000Y-62320800D03*
X119070000Y-62320800D03*
X118270000Y-62320800D03*
D16*
X124795000Y-62295800D03*
X114945000Y-62295800D03*
X124795000Y-58095800D03*
X114945000Y-58095800D03*
%TD*%
D17*
%TO.C,R2*%
X119470000Y-66675000D03*
X119470000Y-68325000D03*
%TD*%
D18*
%TO.C,R3*%
X122170000Y-74350000D03*
X120520000Y-74350000D03*
%TD*%
D19*
%TO.C,R1*%
X121020000Y-68325000D03*
X121020000Y-66675000D03*
%TD*%
D20*
%TO.C,C3*%
X127570000Y-78950000D03*
X127570000Y-80500000D03*
%TD*%
D11*
%TO.C,C2*%
X122545000Y-68300000D03*
X124095000Y-68300000D03*
%TD*%
D14*
%TO.C,R6*%
X117495000Y-82200000D03*
X119145000Y-82200000D03*
%TD*%
D21*
%TO.C,D1*%
X125970000Y-81900000D03*
X125970000Y-80325000D03*
%TD*%
D17*
%TO.C,R4*%
X125970000Y-77250000D03*
X125970000Y-78900000D03*
%TD*%
D22*
%TO.C,U1*%
X119465000Y-70450000D03*
X119465000Y-71400000D03*
X119465000Y-72350000D03*
X121975000Y-72350000D03*
X121975000Y-71400000D03*
X121975000Y-70450000D03*
%TD*%
M02*
